<svg xmlns="http://www.w3.org/2000/svg" width="15" height="15" viewBox="591 18 15 15"><desc> Created with Sketch.</desc><path d="M598.5 33C602.6 33 606 29.6 606 25.5 606 21.4 602.6 18 598.5 18 594.4 18 591 21.4 591 25.5 591 29.6 594.4 33 598.5 33ZM599.7 28.3L599.6 28.7C599.3 28.8 599.1 28.9 598.9 28.9 598.7 29 598.5 29 598.3 29 597.9 29 597.6 28.9 597.4 28.8 597.2 28.6 597.1 28.4 597.1 28.1 597.1 28 597.1 28 597.1 27.9 597.1 27.8 597.1 27.6 597.2 27.5L597.5 26.3C597.6 26.2 597.6 26.1 597.6 26 597.7 25.9 597.7 25.8 597.7 25.7 597.7 25.5 597.6 25.4 597.6 25.4 597.5 25.3 597.4 25.3 597.1 25.3 597 25.3 596.9 25.3 596.8 25.3 596.7 25.4 596.6 25.4 596.6 25.4L596.7 25C596.9 24.9 597.2 24.9 597.4 24.8 597.6 24.7 597.9 24.7 598.1 24.7 598.4 24.7 598.7 24.8 598.9 24.9 599.1 25.1 599.2 25.3 599.2 25.6 599.2 25.6 599.2 25.7 599.2 25.8 599.2 26 599.2 26.1 599.1 26.2L598.7 27.4C598.7 27.5 598.7 27.6 598.7 27.7 598.6 27.8 598.6 27.9 598.6 28 598.6 28.2 598.7 28.3 598.7 28.3 598.8 28.4 599 28.4 599.2 28.4 599.3 28.4 599.4 28.4 599.5 28.4 599.6 28.3 599.7 28.3 599.7 28.3ZM600 23C600 23.3 599.9 23.5 599.7 23.7 599.5 23.9 599.3 24 599 24 598.7 24 598.5 23.9 598.3 23.7 598.1 23.5 598 23.3 598 23 598 22.7 598.1 22.5 598.3 22.3 598.5 22.1 598.7 22 599 22 599.3 22 599.5 22.1 599.7 22.3 599.9 22.5 600 22.7 600 23Z" fill="#A5ABB4"/></svg>
