<svg width="32px" height="32px" viewBox="14 0 32 32" version="1.1" xmlns="http://www.w3.org/2000/svg" xmlns:xlink="http://www.w3.org/1999/xlink">
  <path d="M14,5 C14,2.23857625 16.2374593,0 19,0 L41,0 C43.7614237,0 46,2.23745928 46,5 L46,27 C46,29.7614237 43.7625407,32 41,32 L19,32 C16.2385763,32 14,29.7625407 14,27 L14,5 Z M16,4.99649048 C16,3.34157448 17.3504982,2 18.9964905,2 L41.0035095,2 C42.6584255,2 44,3.3504982 44,4.99649048 L44,27.0035095 C44,28.6584255 42.6495018,30 41.0035095,30 L18.9964905,30 C17.3415745,30 16,28.6495018 16,27.0035095 L16,4.99649048 Z M22,16 C22,20.416 25.584,24 30,24 C34.416,24 38,20.416 38,16 C38,11.584 34.416,8 30,8 C25.584,8 22,11.584 22,16 Z M24,16 C24,12.6859375 26.6859375,10 30,10 C33.3140625,10 36,12.6859375 36,16 C36,19.3140625 33.3140625,22 30,22 C26.6859375,22 24,19.3140625 24,16 Z" id="Combined-Shape" stroke="none" fill="#FFFFFF" fill-rule="evenodd"></path>
</svg>
