<svg width="24" height="24" viewBox="12 4 24 24" xmlns="http://www.w3.org/2000/svg"><g fill="none" fill-rule="evenodd"><path d="M12 4h24v24H12z"/><path d="M24 24c-4.42 0-8-3.58-8-8s3.58-8 8-8 8 3.58 8 8-3.58 8-8 8zm-3-8c.55 0 1-.67 1-1.5s-.45-1.5-1-1.5-1 .67-1 1.5.45 1.5 1 1.5zm-.03 4.12c.73.56 1.74.88 3.03.88 1.3 0 2.3-.32 3.04-.88.48-.35.76-.73.9-1.03.16-.38.03-1.1-.44-1.1h-7c-.5 0-.6.72-.43 1.1.14.3.42.67.9 1.02zM27 16c.55 0 1-.67 1-1.5s-.45-1.5-1-1.5-1 .67-1 1.5.45 1.5 1 1.5z" fill="#FFF"/></g></svg>
