<svg xmlns="http://www.w3.org/2000/svg" width="16" height="15" viewBox="4 5 16 15"><desc>  Created with Sketch.</desc><path d="M11.9 10.8C12.7 10.8 13.2 11.5 13.2 12.6 13.2 13.7 12.7 14.4 11.9 14.4 11.1 14.4 10.6 13.7 10.6 12.6 10.6 11.5 11.1 10.8 11.9 10.8L11.9 10.8ZM4.6 12.5C4.6 17.1 7.7 20 12.3 20 13.1 20 13.9 19.9 14.6 19.7L14.6 18.1C14.1 18.3 13.3 18.4 12.5 18.4 8.8 18.4 6.4 16.2 6.4 12.6 6.4 9 8.7 6.6 12.1 6.6 15.3 6.6 17.4 8.7 17.4 11.9 17.4 13.6 16.9 14.7 16.2 14.7 15.7 14.7 15 14.6 15 14L15 9.1 13.4 9.1 13.4 10.1 13.3 10.1C12.9 9.3 12.1 8.9 11.2 8.9 9.4 8.9 8.3 10.3 8.3 12.5 8.3 14.8 9.5 16.3 11.3 16.3 12.3 16.3 13 15.8 13.4 14.9L13.5 14.9C13.8 15.8 14.6 16.3 15.7 16.3 17.9 16.3 19.3 14.5 19.3 11.7 19.3 7.7 16.3 5 12.1 5 7.7 5 4.6 8.1 4.6 12.5Z" fill="#FFF"/></svg>