<svg xmlns="http://www.w3.org/2000/svg" width="10" height="14" viewBox="208 19 10 14"><desc>  Created with Sketch.</desc><path d="M213 24.7L209.6 21.3C209.2 20.9 208.6 20.9 208.3 21.3 207.9 21.6 207.9 22.2 208.3 22.6L211.7 26 208.3 29.4C207.9 29.8 207.9 30.4 208.3 30.7 208.6 31.1 209.2 31.1 209.6 30.7L213 27.3 216.4 30.7C216.8 31.1 217.4 31.1 217.7 30.7 218.1 30.4 218.1 29.8 217.7 29.4L214.3 26 217.7 22.6C218.1 22.2 218.1 21.6 217.7 21.3 217.4 20.9 216.8 20.9 216.4 21.3L213 24.7Z" id="hide" style="fill:#8CA2BB"/></svg>