<svg xmlns="http://www.w3.org/2000/svg" width="12" height="10" viewBox="6 7 12 10"><desc>  Created with Sketch.</desc><path d="M6 7.5C6 7.2 6.2 7 6.5 7L17.5 7C17.8 7 18 7.2 18 7.5L18 8.5C18 8.8 17.8 9 17.5 9L6.5 9C6.2 9 6 8.8 6 8.5L6 7.5ZM6 11.5C6 11.2 6.2 11 6.5 11L17.5 11C17.8 11 18 11.2 18 11.5L18 12.5C18 12.8 17.8 13 17.5 13L6.5 13C6.2 13 6 12.8 6 12.5L6 11.5ZM6 15.5C6 15.2 6.2 15 6.5 15L12.5 15C12.8 15 13 15.2 13 15.5L13 16.5C13 16.8 12.8 17 12.5 17L6.5 17C6.2 17 6 16.8 6 16.5L6 15.5Z" fill="#FFF"/></svg>