<svg xmlns="http://www.w3.org/2000/svg" width="16" height="13" viewBox="4 5 16 13"><desc>  Created with Sketch.</desc><path d="M18.5 7.1L17.1 7.1C16.9 7.1 16.6 6.9 16.5 6.6L15.9 5.4C15.8 5.2 15.6 5 15.3 5L8.8 5C8.6 5 8.3 5.2 8.2 5.4L7.6 6.6C7.5 6.9 7.3 7.1 7 7.1L5.6 7.1C4.7 7.1 4 8.1 4 8.9L4 16.4C4 17.2 4.7 18 5.6 18L18.4 18C19.2 18 20 17.2 20 16.4L20 8.7C20.1 7.8 19.4 7.1 18.5 7.1ZM12 16C9.8 16 8 14.2 8 12 8 9.8 9.8 8 12 8 14.2 8 16 9.8 16 12 16 14.2 14.2 16 12 16ZM12 9.5C10.6 9.5 9.5 10.6 9.5 12 9.5 13.4 10.6 14.5 12 14.5 13.4 14.5 14.5 13.4 14.5 12 14.5 10.6 13.4 9.5 12 9.5Z" fill="#FFF"/></svg>